<!--?xml version="1.0" standalone="no"?-->
              <svg id="sw-js-blob-svg" viewBox="0 0 100 100" xmlns="http://www.w3.org/2000/svg" version="1.1">
                    <defs> 
                        <linearGradient id="sw-gradient" x1="0" x2="1" y1="1" y2="0">
                            <stop id="stop1" stop-color="rgba(192, 11, 202, 1)" offset="0%"></stop>
                            <stop id="stop2" stop-color="rgba(192, 11, 202, 1)" offset="100%"></stop>
                        </linearGradient>
                    </defs>
                <path fill="url(#sw-gradient)" d="M23.7,-29.3C30.4,-22.6,35.4,-14.9,36.9,-6.5C38.4,1.9,36.5,10.9,32,18.3C27.6,25.7,20.5,31.4,12.7,33.7C4.9,36,-3.8,35,-12.3,32.5C-20.9,30,-29.4,25.9,-35,18.9C-40.6,11.9,-43.3,1.9,-41.3,-7C-39.4,-15.8,-32.8,-23.6,-25.2,-30.1C-17.5,-36.6,-8.8,-42,-0.1,-41.8C8.5,-41.7,17,-36,23.7,-29.3Z" width="100%" height="100%" transform="translate(50 50)" stroke-width="0" style="transition: all 0.3s ease 0s;" stroke="url(#sw-gradient)"></path>
              </svg>